<svg xmlns="http://www.w3.org/2000/svg" xmlns:xlink="http://www.w3.org/1999/xlink" viewBox="0,0,256,256" width="80px" height="80px" fill-rule="nonzero"><g fill="none" fill-rule="nonzero" stroke="none" stroke-width="1" stroke-linecap="butt" stroke-linejoin="miter" stroke-miterlimit="10" stroke-dasharray="" stroke-dashoffset="0" font-family="none" font-weight="none" font-size="none" text-anchor="none" style="mix-blend-mode: normal"><g transform="scale(16,16)"><path d="M2,7.5c0,-2.742 1.476,-5.134 3.673,-6.442c-3.198,0.407 -5.673,3.133 -5.673,6.442c0,3.309 2.475,6.035 5.673,6.442c-2.197,-1.308 -3.673,-3.7 -3.673,-6.442z" fill="#edb522"></path><path d="M15.5,5c-0.98,-2.349 -3.297,-4 -6,-4c-2.703,0 -5.02,1.651 -6,4z" fill="#4b1cb1"></path><path d="M3.181,6c-0.077,0.325 -0.13,0.658 -0.156,1h12.949c-0.026,-0.342 -0.079,-0.675 -0.156,-1z" fill="#4b1cb1"></path><path d="M15.819,9c0.077,-0.325 0.13,-0.658 0.156,-1h-12.95c0.026,0.342 0.079,0.675 0.156,1z" fill="#4b1cb1"></path><path d="M3.5,10c0.98,2.349 3.297,4 6,4c2.703,0 5.02,-1.651 6,-4z" fill="#4b1cb1"></path><g fill="#6e32c4"><path d="M5.76,10c0.807,1.205 2.18,2 3.74,2c1.56,0 2.933,-0.795 3.74,-2z"></path></g></g></g></svg>