<svg xmlns="http://www.w3.org/2000/svg" xmlns:xlink="http://www.w3.org/1999/xlink" viewBox="0,0,256,256" width="64px" height="64px" fill-rule="nonzero"><g fill="none" fill-rule="nonzero" stroke="none" stroke-width="1" stroke-linecap="butt" stroke-linejoin="miter" stroke-miterlimit="10" stroke-dasharray="" stroke-dashoffset="0" font-family="none" font-weight="none" font-size="none" text-anchor="none" style="mix-blend-mode: normal"><g transform="scale(4,4)"><path d="M5.559,22.837c-5.054,14.604 2.688,30.541 17.293,35.595c14.605,5.054 30.542,-2.687 35.596,-17.292c5.054,-14.605 -2.688,-30.541 -17.292,-35.595c-14.604,-5.054 -30.542,2.687 -35.597,17.292z" fill="#ff713d"></path><path d="M48.246,48.245c-8.978,8.975 -23.532,8.973 -32.507,-0.005c-8.975,-8.978 -8.972,-23.532 0.006,-32.507c8.978,-8.975 23.532,-8.973 32.507,0.005c1.807,1.808 3.301,3.905 4.418,6.205c4.283,8.814 2.507,19.374 -4.424,26.302z" fill="#ff713d"></path><path d="M58.064,19.323c-6.995,-14.397 -24.336,-20.397 -38.734,-13.403c-6.914,3.359 -12.21,9.327 -14.723,16.591c-5.244,15.126 2.767,31.639 17.894,36.882c15.127,5.243 31.639,-2.768 36.883,-17.894c2.544,-7.27 2.069,-15.258 -1.32,-22.176zM57.495,40.81c-4.881,14.08 -20.252,21.538 -34.333,16.658c-14.081,-4.88 -21.539,-20.251 -16.659,-34.332c4.88,-14.081 20.252,-21.539 34.333,-16.658c6.761,2.344 12.315,7.277 15.439,13.715c3.125,6.438 3.563,13.855 1.22,20.617z" fill="#ff713d"></path><path d="M46.126,46.125c-0.39,0.39 -0.39,1.023 0,1.413l1.413,1.413c0.39,0.39 1.023,0.39 1.413,0c0.39,-0.39 0.39,-1.023 0,-1.413l-1.413,-1.413c-0.39,-0.39 -1.022,-0.39 -1.413,0z" fill="#ff713d"></path><path d="M50.423,41.941c-0.488,-0.259 -1.093,-0.073 -1.351,0.414c-0.246,0.464 -0.091,1.04 0.355,1.317l1.731,0.996c0.482,0.275 1.096,0.107 1.371,-0.375c0.275,-0.482 0.107,-1.096 -0.375,-1.371z" fill="#ff713d"></path><path d="M37.837,50.909c-0.533,0.142 -0.851,0.69 -0.708,1.223c0.001,0.002 0.001,0.004 0.002,0.007l0.516,1.929c0.165,0.527 0.726,0.82 1.252,0.655c0.496,-0.155 0.79,-0.664 0.677,-1.171l-0.516,-1.929c-0.139,-0.534 -0.685,-0.854 -1.219,-0.715c-0.002,0.001 -0.003,0.001 -0.004,0.001z" fill="#ff713d"></path><path d="M52.14,37.129c-0.539,-0.12 -1.073,0.219 -1.193,0.758c-0.113,0.507 0.181,1.016 0.677,1.171l1.929,0.516c0.539,0.12 1.073,-0.219 1.193,-0.758c0.113,-0.507 -0.181,-1.016 -0.677,-1.171z" fill="#ff713d"></path><path d="M42.296,49.065c-0.475,0.278 -0.636,0.888 -0.36,1.364l0.989,1.724c0.259,0.488 0.864,0.673 1.351,0.414c0.488,-0.259 0.673,-0.864 0.414,-1.351c-0.011,-0.02 -0.022,-0.04 -0.034,-0.059l-0.996,-1.731c-0.278,-0.476 -0.888,-0.637 -1.364,-0.361z" fill="#ff713d"></path><path d="M31.59,10.29c0.547,-0.076 0.928,-0.581 0.852,-1.127c-0.059,-0.424 -0.382,-0.764 -0.803,-0.844c-0.835,-0.012 -1.67,0.021 -2.502,0.099c-0.552,0.018 -0.984,0.481 -0.965,1.032c0.018,0.552 0.481,0.984 1.032,0.965c0.041,-0.001 0.083,-0.005 0.124,-0.012c0.752,-0.078 1.507,-0.116 2.262,-0.113z" fill="#ff713d"></path><path d="M11.45,24.423c2.215,-6.358 7.337,-11.275 13.78,-13.229c0.529,-0.158 0.829,-0.715 0.671,-1.244c-0.158,-0.529 -0.715,-0.829 -1.244,-0.671c-7.037,2.141 -12.631,7.509 -15.059,14.452c-0.196,0.516 0.063,1.093 0.579,1.289c0.516,0.196 1.093,-0.063 1.289,-0.579c0.007,-0.017 0.013,-0.035 0.018,-0.053z" fill="#ff713d"></path><path d="M42.009,23.207c-0.083,-0.317 -0.218,-0.591 -0.408,-0.81l-11.267,11.384l1.455,1.431l8.461,-8.582c0.025,-0.024 1.849,-1.824 1.759,-3.423z" fill="#fff8ee"></path><path d="M31.084,35.499l-1.363,-1.34l-1.758,1.82z" fill="#fff8ee"></path><path d="M31.706,36.111l-4.546,0.699l-8.332,8.624l3.497,3.438l0.175,0.003l-0.875,-3.625c0,0 4.82,-2.189 11.267,-7.974z" fill="#fff8ee"></path><path d="M18.342,45.937l-2.717,2.813l5.684,0.103z" fill="#fff8ee"></path><path d="M40.743,27.126l-8.455,8.576l1.123,1.104c0.114,-0.104 0.224,-0.2 0.338,-0.306c6.093,-5.65 7.374,-8.06 8.022,-10.623c-0.486,0.713 -0.985,1.208 -1.028,1.249z" fill="#fff8ee"></path><path d="M29.835,33.29l11.21,-11.328c-0.875,-0.462 -2.224,-0.403 -3.795,0.163c-3.125,1.125 -6.875,5.25 -6.875,5.25l-3.008,3.489z" fill="#fff8ee"></path><path d="M26.909,31.395l-2.784,3.23l5.104,-0.95z" fill="#fff8ee"></path><g fill="#fff8ee"><path d="M43.499,19.743c-0.066,-0.068 -0.102,-0.161 -0.098,-0.256c0.003,-0.095 0.045,-0.185 0.116,-0.248l4.018,-3.599c-0.724,-0.551 -1.617,-0.89 -2.597,-0.89c-2.382,0 -4.313,1.931 -4.313,4.313c0,2.382 1.931,4.313 4.313,4.313c0.614,0 1.195,-0.132 1.724,-0.364z"></path><path d="M44.254,19.518l3.045,3.147c1.173,-0.771 1.95,-2.094 1.95,-3.603c0,-1.148 -0.456,-2.184 -1.187,-2.957zM48.188,20.407c-0.061,0.123 -0.185,0.193 -0.313,0.193c-0.052,0 -0.106,-0.012 -0.156,-0.037c-0.173,-0.086 -0.243,-0.296 -0.156,-0.47c0.409,-0.817 0.135,-1.415 0.124,-1.44c-0.082,-0.173 -0.01,-0.382 0.162,-0.466c0.172,-0.083 0.379,-0.016 0.465,0.156c0.018,0.037 0.446,0.92 -0.126,2.064z"></path></g></g></g></svg>